<?xml version="1.0" encoding="UTF-8"?>
<!DOCTYPE svg PUBLIC "-//W3C//DTD SVG 1.1//EN" "http://www.w3.org/Graphics/SVG/1.1/DTD/svg11.dtd">
<!-- Creator: CorelDRAW 2019 (64 Bit) -->
<svg xmlns="http://www.w3.org/2000/svg" xml:space="preserve" width="297mm" height="210mm" version="1.1" style="shape-rendering:geometricPrecision; text-rendering:geometricPrecision; image-rendering:optimizeQuality; fill-rule:evenodd; clip-rule:evenodd"
viewBox="0 0 29700 21000"
 xmlns:xlink="http://www.w3.org/1999/xlink">
 <defs>
  <style type="text/css">
   <![CDATA[
    .fil4 {fill:none}
    .fil0 {fill:#2F2929}
    .fil1 {fill:#FA1C22}
    .fil3 {fill:url(#id0)}
    .fil2 {fill:url(#id1)}
    .fil5 {fill:url(#id2)}
    .fil6 {fill:url(#id3)}
    .fil7 {fill:url(#id4)}
   ]]>
  </style>
  <linearGradient id="id0" gradientUnits="userSpaceOnUse" x1="8247.95" y1="10935.63" x2="8263.53" y2="17387.83">
   <stop offset="0" style="stop-opacity:1; stop-color:#FA1C22"/>
   <stop offset="1" style="stop-opacity:1; stop-color:#050505"/>
  </linearGradient>
  <linearGradient id="id1" gradientUnits="objectBoundingBox" xlink:href="#id0" x1="0.0669774%" y1="15.5503%" x2="0%" y2="308.901%">
  </linearGradient>
  <linearGradient id="id2" gradientUnits="userSpaceOnUse" x1="11010.51" y1="10990.4" x2="10935.28" y2="17422.61">
   <stop offset="0" style="stop-opacity:1; stop-color:#FA1C22"/>
   <stop offset="1" style="stop-opacity:1; stop-color:#0A0A0A"/>
  </linearGradient>
  <linearGradient id="id3" gradientUnits="userSpaceOnUse" xlink:href="#id2" x1="2887.59" y1="10994.88" x2="2815.98" y2="17526.63">
  </linearGradient>
  <linearGradient id="id4" gradientUnits="userSpaceOnUse" x1="13913.13" y1="10995.32" x2="13849.92" y2="17457.25">
   <stop offset="0" style="stop-opacity:1; stop-color:#FA1C22"/>
   <stop offset="1" style="stop-opacity:1; stop-color:#282829"/>
  </linearGradient>
 </defs>
 <g id="Camada_x0020_1">
  <metadata id="CorelCorpID_0Corel-Layer"/>
  <g id="_2325825775088">
   <path class="fil0" d="M19616.71 12857.6l1001.12 -7.79 -0.56 -2924.57c1278.48,-24 1070.52,58.54 1053.44,2938.74l987.11 -0.48c17.08,-4276.39 436.07,-3720.63 -3042.76,-3748.72l1.65 3742.82z"/>
   <polygon class="fil1" points="2887.59,12854.93 5324.79,12856.89 5326.6,12051.31 3895.86,12039.43 3905.3,9137.99 2923.47,9132.95 "/>
   <polygon class="fil2" points="119.99,12856.5 2583.78,12856.58 2584.96,12056.9 1133.38,12040.06 1133.69,11400.04 2581.27,11387.13 2587.01,10630.1 121.96,10621.05 "/>
   <polygon class="fil0" points="18341.54,9717.35 18342.01,10783.22 18341.93,12248.81 18341.93,12515.32 18341.62,12875.54 19328.49,12858.94 19328.09,9117.77 18342.01,9126.9 "/>
   <polygon class="fil0" points="22848.63,12863.98 23857.69,12860.51 23858.48,11412.23 25313.13,11384.14 25311.8,11316.16 25312.19,10580.76 22855.16,10583.44 "/>
   <path class="fil3" d="M8247.63 11249.59c-3.07,1553.56 -14.16,1606.2 2002.54,1607.93l-0.08 -805.34c-1267.54,66.41 -1028.26,-325.21 -995.76,-1422l-1006.07 -8.5 -0.63 627.91z"/>
   <polygon class="fil0" points="22850.13,9901.24 25319.82,9923.19 25318.64,9116.51 22854.77,9119.42 "/>
   <polygon class="fil1" points="8247.39,9936.88 10703.79,9940.19 10700.09,9142.48 8269.51,9132.25 "/>
   <polyline class="fil4" points="2590.55,9140.67 126.44,9139.01 125.81,9917.68 2586.7,9922.17 "/>
   <path class="fil0" d="M27918 9056.55c925.31,155.22 1630.49,959.88 1630.49,1929.33 0,969.44 -705.18,1774.1 -1630.49,1929.32l0 -979.34c394.51,-135.44 678.01,-509.55 678.01,-949.98 0,-440.44 -283.5,-814.55 -678.01,-949.99l0 -979.34zm-652.16 3858.65c-925.31,-155.22 -1630.49,-959.88 -1630.49,-1929.32 0,-969.45 705.18,-1774.11 1630.49,-1929.33l0 979.34c-394.51,135.44 -678.01,509.55 -678.01,949.99 0,440.43 283.5,814.54 678.01,949.91l0 979.41z"/>
   <path class="fil5" d="M11013.66 9939.01c1075.7,16.68 1631.93,-169.41 1619.26,518.53 -391.93,243.93 -1042.97,160.68 -1622.41,166.03l1.49 767.26c1659.16,-4.64 1590.63,-157.76 1633.82,1464.57l934.86 1.89c1.26,-261.16 -12.51,-715.96 -11.09,-1114.97 1.57,-295.94 -223.55,-598.56 -457.71,-759.24 260.05,-190.26 510.19,-331.34 583.68,-681.73 100.09,-477.38 -62.63,-748.85 -334.56,-898.27 -593.92,-326.46 -1533.82,-286.41 -2317.44,-266.35l-29.9 802.28z"/>
   <polygon class="fil6" points="2887.59,12854.93 5324.79,12856.89 5326.6,12051.31 3895.86,12039.43 3905.3,9137.99 2923.47,9132.95 "/>
   <polygon class="fil1" points="125.81,9917.68 2586.7,9922.17 2590.55,9140.67 117.08,9139.01 "/>
   <path class="fil7" d="M16195.78 9065.91c925.31,155.22 1630.49,959.88 1630.49,1929.33 0,969.45 -705.18,1774.11 -1630.49,1929.32l0 -979.33c394.51,-135.45 678.01,-509.56 678.01,-949.99 0,-440.43 -283.5,-814.54 -678.01,-949.99l0 -979.34zm-652.16 3858.65c-925.32,-155.21 -1630.49,-959.87 -1630.49,-1929.32 0,-969.45 705.17,-1774.11 1630.49,-1929.33l0 979.34c-394.51,135.45 -678.01,509.56 -678.01,949.99 0,440.43 283.5,814.54 678.01,949.91l0 979.41z"/>
   <g>
    <polygon class="fil2" points="5497.98,12856.51 7961.77,12856.59 7962.95,12056.91 6511.37,12040.07 6511.68,11400.05 7959.26,11387.14 7965,10630.11 5499.95,10621.06 "/>
    <polyline class="fil4" points="7968.54,9140.68 5504.43,9139.02 5503.8,9917.69 7964.69,9922.18 "/>
    <polygon class="fil2" points="5497.98,12856.51 7961.77,12856.59 7962.95,12056.91 6511.37,12040.07 6511.68,11400.05 7959.26,11387.14 7965,10630.11 5499.95,10621.06 "/>
    <polygon class="fil1" points="5503.8,9917.69 7964.69,9922.18 7968.54,9140.68 5495.07,9139.02 "/>
   </g>
  </g>
 </g>
</svg>
<?xml version="1.0" encoding="UTF-8"?>
<!DOCTYPE svg PUBLIC "-//W3C//DTD SVG 1.1//EN" "http://www.w3.org/Graphics/SVG/1.1/DTD/svg11.dtd">
<!-- Creator: CorelDRAW 2019 (64 Bit) -->
<svg xmlns="http://www.w3.org/2000/svg" xml:space="preserve" width="297mm" height="210mm" version="1.1" style="shape-rendering:geometricPrecision; text-rendering:geometricPrecision; image-rendering:optimizeQuality; fill-rule:evenodd; clip-rule:evenodd"
viewBox="0 0 29700 21000"
 xmlns:xlink="http://www.w3.org/1999/xlink">
 <defs>
  <style type="text/css">
   <![CDATA[
    .fil4 {fill:none}
    .fil0 {fill:#2F2929}
    .fil1 {fill:#FA1C22}
    .fil3 {fill:url(#id0)}
    .fil2 {fill:url(#id1)}
    .fil5 {fill:url(#id2)}
    .fil6 {fill:url(#id3)}
    .fil7 {fill:url(#id4)}
   ]]>
  </style>
  <linearGradient id="id0" gradientUnits="userSpaceOnUse" x1="8247.95" y1="10935.63" x2="8263.53" y2="17387.83">
   <stop offset="0" style="stop-opacity:1; stop-color:#FA1C22"/>
   <stop offset="1" style="stop-opacity:1; stop-color:#050505"/>
  </linearGradient>
  <linearGradient id="id1" gradientUnits="objectBoundingBox" xlink:href="#id0" x1="0.0669774%" y1="15.5503%" x2="0%" y2="308.901%">
  </linearGradient>
  <linearGradient id="id2" gradientUnits="userSpaceOnUse" x1="11010.51" y1="10990.4" x2="10935.28" y2="17422.61">
   <stop offset="0" style="stop-opacity:1; stop-color:#FA1C22"/>
   <stop offset="1" style="stop-opacity:1; stop-color:#0A0A0A"/>
  </linearGradient>
  <linearGradient id="id3" gradientUnits="userSpaceOnUse" xlink:href="#id2" x1="2887.59" y1="10994.88" x2="2815.98" y2="17526.63">
  </linearGradient>
  <linearGradient id="id4" gradientUnits="userSpaceOnUse" x1="13913.13" y1="10995.32" x2="13849.92" y2="17457.25">
   <stop offset="0" style="stop-opacity:1; stop-color:#FA1C22"/>
   <stop offset="1" style="stop-opacity:1; stop-color:#282829"/>
  </linearGradient>
 </defs>
 <g id="Camada_x0020_1">
  <metadata id="CorelCorpID_0Corel-Layer"/>
  <g id="_2325825775088">
   <path class="fil0" d="M19616.71 12857.6l1001.12 -7.79 -0.56 -2924.57c1278.48,-24 1070.52,58.54 1053.44,2938.74l987.11 -0.48c17.08,-4276.39 436.07,-3720.63 -3042.76,-3748.72l1.65 3742.82z"/>
   <polygon class="fil1" points="2887.59,12854.93 5324.79,12856.89 5326.6,12051.31 3895.86,12039.43 3905.3,9137.99 2923.47,9132.95 "/>
   <polygon class="fil2" points="119.99,12856.5 2583.78,12856.58 2584.96,12056.9 1133.38,12040.06 1133.69,11400.04 2581.27,11387.13 2587.01,10630.1 121.96,10621.05 "/>
   <polygon class="fil0" points="18341.54,9717.35 18342.01,10783.22 18341.93,12248.81 18341.93,12515.32 18341.62,12875.54 19328.49,12858.94 19328.09,9117.77 18342.01,9126.9 "/>
   <polygon class="fil0" points="22848.63,12863.98 23857.69,12860.51 23858.48,11412.23 25313.13,11384.14 25311.8,11316.16 25312.19,10580.76 22855.16,10583.44 "/>
   <path class="fil3" d="M8247.63 11249.59c-3.07,1553.56 -14.16,1606.2 2002.54,1607.93l-0.08 -805.34c-1267.54,66.41 -1028.26,-325.21 -995.76,-1422l-1006.07 -8.5 -0.63 627.91z"/>
   <polygon class="fil0" points="22850.13,9901.24 25319.82,9923.19 25318.64,9116.51 22854.77,9119.42 "/>
   <polygon class="fil1" points="8247.39,9936.88 10703.79,9940.19 10700.09,9142.48 8269.51,9132.25 "/>
   <polyline class="fil4" points="2590.55,9140.67 126.44,9139.01 125.81,9917.68 2586.7,9922.17 "/>
   <path class="fil0" d="M27918 9056.55c925.31,155.22 1630.49,959.88 1630.49,1929.33 0,969.44 -705.18,1774.1 -1630.49,1929.32l0 -979.34c394.51,-135.44 678.01,-509.55 678.01,-949.98 0,-440.44 -283.5,-814.55 -678.01,-949.99l0 -979.34zm-652.16 3858.65c-925.31,-155.22 -1630.49,-959.88 -1630.49,-1929.32 0,-969.45 705.18,-1774.11 1630.49,-1929.33l0 979.34c-394.51,135.44 -678.01,509.55 -678.01,949.99 0,440.43 283.5,814.54 678.01,949.91l0 979.41z"/>
   <path class="fil5" d="M11013.66 9939.01c1075.7,16.68 1631.93,-169.41 1619.26,518.53 -391.93,243.93 -1042.97,160.68 -1622.41,166.03l1.49 767.26c1659.16,-4.64 1590.63,-157.76 1633.82,1464.57l934.86 1.89c1.26,-261.16 -12.51,-715.96 -11.09,-1114.97 1.57,-295.94 -223.55,-598.56 -457.71,-759.24 260.05,-190.26 510.19,-331.34 583.68,-681.73 100.09,-477.38 -62.63,-748.85 -334.56,-898.27 -593.92,-326.46 -1533.82,-286.41 -2317.44,-266.35l-29.9 802.28z"/>
   <polygon class="fil6" points="2887.59,12854.93 5324.79,12856.89 5326.6,12051.31 3895.86,12039.43 3905.3,9137.99 2923.47,9132.95 "/>
   <polygon class="fil1" points="125.81,9917.68 2586.7,9922.17 2590.55,9140.67 117.08,9139.01 "/>
   <path class="fil7" d="M16195.78 9065.91c925.31,155.22 1630.49,959.88 1630.49,1929.33 0,969.45 -705.18,1774.11 -1630.49,1929.32l0 -979.33c394.51,-135.45 678.01,-509.56 678.01,-949.99 0,-440.43 -283.5,-814.54 -678.01,-949.99l0 -979.34zm-652.16 3858.65c-925.32,-155.21 -1630.49,-959.87 -1630.49,-1929.32 0,-969.45 705.17,-1774.11 1630.49,-1929.33l0 979.34c-394.51,135.45 -678.01,509.56 -678.01,949.99 0,440.43 283.5,814.54 678.01,949.91l0 979.41z"/>
   <g>
    <polygon class="fil2" points="5497.98,12856.51 7961.77,12856.59 7962.95,12056.91 6511.37,12040.07 6511.68,11400.05 7959.26,11387.14 7965,10630.11 5499.95,10621.06 "/>
    <polyline class="fil4" points="7968.54,9140.68 5504.43,9139.02 5503.8,9917.69 7964.69,9922.18 "/>
    <polygon class="fil2" points="5497.98,12856.51 7961.77,12856.59 7962.95,12056.91 6511.37,12040.07 6511.68,11400.05 7959.26,11387.14 7965,10630.11 5499.95,10621.06 "/>
    <polygon class="fil1" points="5503.8,9917.69 7964.69,9922.18 7968.54,9140.68 5495.07,9139.02 "/>
   </g>
  </g>
 </g>
</svg>
