<?xml version="1.0" encoding="UTF-8"?>
<!DOCTYPE svg PUBLIC "-//W3C//DTD SVG 1.1//EN" "http://www.w3.org/Graphics/SVG/1.1/DTD/svg11.dtd">
<!-- Creator: CorelDRAW 2019 (64 Bit) -->
<svg xmlns="http://www.w3.org/2000/svg" xml:space="preserve" width="297mm" height="210mm" version="1.1" style="shape-rendering:geometricPrecision; text-rendering:geometricPrecision; image-rendering:optimizeQuality; fill-rule:evenodd; clip-rule:evenodd"
viewBox="0 0 29700 21000"
 xmlns:xlink="http://www.w3.org/1999/xlink">
 <defs>
  <style type="text/css">
   <![CDATA[
    .fil7 {fill:none}
    .fil3 {fill:#2F2929}
    .fil0 {fill:#2F2929}
    .fil4 {fill:#FA1C22}
    .fil2 {fill:#FA1C22}
    .fil6 {fill:url(#id0)}
    .fil5 {fill:url(#id1)}
    .fil1 {fill:url(#id2)}
    .fil8 {fill:url(#id3)}
    .fil9 {fill:url(#id4)}
    .fil10 {fill:url(#id5)}
   ]]>
  </style>
  <linearGradient id="id0" gradientUnits="userSpaceOnUse" x1="8228.15" y1="17519.9" x2="8243.73" y2="23972.1">
   <stop offset="0" style="stop-opacity:1; stop-color:#FA1C22"/>
   <stop offset="1" style="stop-opacity:1; stop-color:#050505"/>
  </linearGradient>
  <linearGradient id="id1" gradientUnits="objectBoundingBox" xlink:href="#id0" x1="0.0669774%" y1="15.5503%" x2="0%" y2="308.901%">
  </linearGradient>
  <linearGradient id="id2" gradientUnits="userSpaceOnUse" xlink:href="#id0" x1="9647.85" y1="10590.18" x2="9640.7" y2="23428.12">
  </linearGradient>
  <linearGradient id="id3" gradientUnits="userSpaceOnUse" x1="10990.71" y1="17574.67" x2="10915.48" y2="24006.88">
   <stop offset="0" style="stop-opacity:1; stop-color:#FA1C22"/>
   <stop offset="1" style="stop-opacity:1; stop-color:#0A0A0A"/>
  </linearGradient>
  <linearGradient id="id4" gradientUnits="userSpaceOnUse" xlink:href="#id3" x1="2867.79" y1="17579.15" x2="2796.18" y2="24110.9">
  </linearGradient>
  <linearGradient id="id5" gradientUnits="userSpaceOnUse" x1="13893.33" y1="17579.59" x2="13830.12" y2="24041.52">
   <stop offset="0" style="stop-opacity:1; stop-color:#FA1C22"/>
   <stop offset="1" style="stop-opacity:1; stop-color:#282829"/>
  </linearGradient>
 </defs>
 <g id="Camada_x0020_1">
  <metadata id="CorelCorpID_0Corel-Layer"/>
  <g id="_2325821406304">
   <g>
    <polygon class="fil0" points="3852.76,14843.66 7039.2,14839.96 7041.48,13852.23 5299.7,13835.31 5292.62,3583.48 7040.93,3579.31 7041.01,2596.77 3866.06,2577.33 "/>
    <polygon class="fil1" points="9647.85,13412.44 15868.94,13412.64 15871.92,11393.45 12206.66,11350.93 12207.45,9734.86 15862.58,9702.28 15877.08,7790.77 9652.82,7767.92 "/>
    <polygon class="fil2" points="9662.55,5991.92 15876.29,6003.24 15886.02,4029.95 9695.93,4007.7 "/>
    <polygon class="fil0" points="17302.52,5503.61 17303.65,8159.67 17303.46,11811.8 17303.46,12475.91 17337.37,13328.45 19467.6,13343.94 19678.63,13332.18 19677.68,4009.51 17303.65,4032.25 "/>
    <polygon class="fil0" points="25559.69,2607.84 22373.26,2599.15 22367.14,3586.87 24108.84,3610.56 24076.08,13862.34 22327.77,13859.72 22323.87,14842.25 25498.72,14874.02 "/>
   </g>
   <g>
    <path class="fil3" d="M19596.91 19441.87l1001.12 -7.79 -0.56 -2924.57c1278.48,-24 1070.52,58.54 1053.44,2938.74l987.11 -0.48c17.08,-4276.39 436.07,-3720.63 -3042.76,-3748.72l1.65 3742.82z"/>
    <polygon class="fil4" points="2867.79,19439.2 5304.99,19441.16 5306.8,18635.58 3876.06,18623.7 3885.5,15722.26 2903.67,15717.22 "/>
    <polygon class="fil5" points="100.19,19440.77 2563.98,19440.85 2565.16,18641.17 1113.58,18624.33 1113.89,17984.31 2561.47,17971.4 2567.21,17214.37 102.16,17205.32 "/>
    <polygon class="fil3" points="18321.74,16301.62 18322.21,17367.49 18322.13,18833.08 18322.13,19099.59 18321.82,19459.81 19308.69,19443.21 19308.29,15702.04 18322.21,15711.17 "/>
    <polygon class="fil3" points="22828.83,19448.25 23837.89,19444.78 23838.68,17996.5 25293.33,17968.41 25292,17900.43 25292.39,17165.03 22835.36,17167.71 "/>
    <path class="fil6" d="M8227.83 17833.86c-3.07,1553.56 -14.16,1606.2 2002.54,1607.93l-0.08 -805.34c-1267.54,66.41 -1028.26,-325.21 -995.76,-1422l-1006.07 -8.5 -0.63 627.91z"/>
    <polygon class="fil3" points="22830.33,16485.51 25300.02,16507.46 25298.84,15700.78 22834.97,15703.69 "/>
    <polygon class="fil4" points="8227.59,16521.15 10683.99,16524.46 10680.29,15726.75 8249.71,15716.52 "/>
    <polyline class="fil7" points="2570.75,15724.94 106.64,15723.28 106.01,16501.95 2566.9,16506.44 "/>
    <path class="fil0" d="M27898.2 15640.82c925.31,155.22 1630.49,959.88 1630.49,1929.33 0,969.44 -705.18,1774.1 -1630.49,1929.32l0 -979.34c394.51,-135.44 678.01,-509.55 678.01,-949.98 0,-440.44 -283.5,-814.55 -678.01,-949.99l0 -979.34zm-652.16 3858.65c-925.31,-155.22 -1630.49,-959.88 -1630.49,-1929.32 0,-969.45 705.18,-1774.11 1630.49,-1929.33l0 979.34c-394.51,135.44 -678.01,509.55 -678.01,949.99 0,440.43 283.5,814.54 678.01,949.91l0 979.41z"/>
    <path class="fil8" d="M10993.86 16523.28c1075.7,16.68 1631.93,-169.41 1619.26,518.53 -391.93,243.93 -1042.97,160.68 -1622.41,166.03l1.49 767.26c1659.16,-4.64 1590.63,-157.76 1633.82,1464.57l934.86 1.89c1.26,-261.16 -12.51,-715.96 -11.09,-1114.97 1.57,-295.94 -223.55,-598.56 -457.71,-759.24 260.05,-190.26 510.19,-331.34 583.68,-681.73 100.09,-477.38 -62.63,-748.85 -334.56,-898.27 -593.92,-326.46 -1533.82,-286.41 -2317.44,-266.35l-29.9 802.28z"/>
    <polygon class="fil9" points="2867.79,19439.2 5304.99,19441.16 5306.8,18635.58 3876.06,18623.7 3885.5,15722.26 2903.67,15717.22 "/>
    <polygon class="fil4" points="106.01,16501.95 2566.9,16506.44 2570.75,15724.94 97.28,15723.28 "/>
    <path class="fil10" d="M16175.98 15650.18c925.31,155.22 1630.49,959.88 1630.49,1929.33 0,969.45 -705.18,1774.11 -1630.49,1929.32l0 -979.33c394.51,-135.45 678.01,-509.56 678.01,-949.99 0,-440.43 -283.5,-814.54 -678.01,-949.99l0 -979.34zm-652.16 3858.65c-925.32,-155.21 -1630.49,-959.87 -1630.49,-1929.32 0,-969.45 705.17,-1774.11 1630.49,-1929.33l0 979.34c-394.51,135.45 -678.01,509.56 -678.01,949.99 0,440.43 283.5,814.54 678.01,949.91l0 979.41z"/>
    <g>
     <polygon class="fil5" points="5478.18,19440.78 7941.97,19440.86 7943.15,18641.18 6491.57,18624.34 6491.88,17984.32 7939.46,17971.41 7945.2,17214.38 5480.15,17205.33 "/>
     <polyline class="fil7" points="7948.74,15724.95 5484.63,15723.29 5484,16501.96 7944.89,16506.45 "/>
     <polygon class="fil5" points="5478.18,19440.78 7941.97,19440.86 7943.15,18641.18 6491.57,18624.34 6491.88,17984.32 7939.46,17971.41 7945.2,17214.38 5480.15,17205.33 "/>
     <polygon class="fil4" points="5484,16501.96 7944.89,16506.45 7948.74,15724.95 5475.27,15723.29 "/>
    </g>
   </g>
  </g>
 </g>
</svg>
