<?xml version="1.0" encoding="UTF-8"?>
<!DOCTYPE svg PUBLIC "-//W3C//DTD SVG 1.1//EN" "http://www.w3.org/Graphics/SVG/1.1/DTD/svg11.dtd">
<!-- Creator: CorelDRAW 2019 (64 Bit) -->
<svg xmlns="http://www.w3.org/2000/svg" xml:space="preserve" width="297mm" height="210mm" version="1.1" style="shape-rendering:geometricPrecision; text-rendering:geometricPrecision; image-rendering:optimizeQuality; fill-rule:evenodd; clip-rule:evenodd"
viewBox="0 0 29700 21000"
 xmlns:xlink="http://www.w3.org/1999/xlink">
 <defs>
  <style type="text/css">
   <![CDATA[
    .fil8 {fill:none}
    .fil0 {fill:#FEFEFE}
    .fil4 {fill:#2F2929}
    .fil1 {fill:#2F2929}
    .fil5 {fill:#FA1C22}
    .fil3 {fill:#FA1C22}
    .fil10 {fill:url(#id0)}
    .fil9 {fill:url(#id1)}
    .fil2 {fill:url(#id2)}
    .fil11 {fill:url(#id3)}
    .fil12 {fill:url(#id4)}
    .fil6 {fill:url(#id5)}
    .fil7 {fill:url(#id6)}
   ]]>
  </style>
  <linearGradient id="id0" gradientUnits="userSpaceOnUse" x1="-1105.19" y1="19246.05" x2="-1202.52" y2="28124.48">
   <stop offset="0" style="stop-opacity:1; stop-color:#FA1C22"/>
   <stop offset="1" style="stop-opacity:1; stop-color:#0A0A0A"/>
  </linearGradient>
  <linearGradient id="id1" gradientUnits="userSpaceOnUse" xlink:href="#id0" x1="9936.09" y1="19239.95" x2="9833.84" y2="27983.09">
  </linearGradient>
  <linearGradient id="id2" gradientUnits="userSpaceOnUse" x1="8110.78" y1="9746.11" x2="8101.06" y2="27196.4">
   <stop offset="0" style="stop-opacity:1; stop-color:#FA1C22"/>
   <stop offset="1" style="stop-opacity:1; stop-color:#050505"/>
  </linearGradient>
  <linearGradient id="id3" gradientUnits="userSpaceOnUse" x1="13881.55" y1="19246.53" x2="13795.63" y2="28030.17">
   <stop offset="0" style="stop-opacity:1; stop-color:#FA1C22"/>
   <stop offset="1" style="stop-opacity:1; stop-color:#282829"/>
  </linearGradient>
  <linearGradient id="id4" gradientUnits="objectBoundingBox" xlink:href="#id2" x1="0.0669831%" y1="15.5503%" x2="0%" y2="308.902%">
  </linearGradient>
  <linearGradient id="id5" gradientUnits="userSpaceOnUse" xlink:href="#id2" x1="-4864.87" y1="19210.43" x2="-4928.51" y2="28124.48">
  </linearGradient>
  <linearGradient id="id6" gradientUnits="userSpaceOnUse" xlink:href="#id2" x1="6181.01" y1="19165.51" x2="6202.18" y2="27935.81">
  </linearGradient>
 </defs>
 <g id="Camada_x0020_1">
  <metadata id="CorelCorpID_0Corel-Layer"/>
  <circle class="fil0" cx="15127.13" cy="10821.23" r="23918.34"/>
  <g id="_2326041185424">
   <g>
    <polygon class="fil1" points="233.66,15527.76 4564.9,15522.73 4568,14180.13 2200.45,14157.13 2190.82,222.08 4567.26,216.41 4567.36,-1119.13 251.73,-1145.55 "/>
    <polygon class="fil2" points="8110.78,13582.33 16566.94,13582.61 16570.99,10837.97 11588.9,10780.18 11589.98,8583.5 16558.3,8539.21 16578.01,5940.95 8117.53,5909.89 "/>
    <polygon class="fil3" points="8130.76,3495.81 16576.93,3511.21 16590.17,828.96 8176.13,798.71 "/>
    <polygon class="fil1" points="18515.57,2832.07 18517.11,6442.38 18516.86,11406.63 18516.86,12309.34 18562.95,13468.18 21458.51,13489.23 21745.36,13473.24 21744.07,801.17 18517.11,832.09 "/>
    <polygon class="fil1" points="29739.34,-1104.08 25408.1,-1115.89 25399.78,226.7 27767.23,258.89 27722.7,14193.87 25346.27,14190.31 25340.97,15525.84 29656.46,15569.03 "/>
   </g>
   <g>
    <path class="fil4" d="M21634.28 21777.99l1360.79 -10.59 -0.75 -3975.3c1737.8,-32.62 1455.12,79.58 1431.91,3994.55l1341.75 -0.64c23.21,-5812.78 592.75,-5057.36 -4135.94,-5095.54l2.24 5087.52z"/>
    <polygon class="fil5" points="-1105.19,21774.35 2207.63,21777.03 2210.09,20682.02 265.33,20665.87 278.17,16722.02 -1056.42,16715.17 "/>
    <polygon class="fil6" points="-4867.11,21776.49 -1518.14,21776.6 -1516.54,20689.62 -3489.64,20666.73 -3489.21,19796.76 -1521.56,19779.22 -1513.76,18750.2 -4864.44,18737.9 "/>
    <polygon class="fil4" points="19900.97,17509.53 19901.61,18958.34 19901.51,20950.48 19901.51,21312.74 19901.08,21802.38 21242.51,21779.81 21241.97,16694.53 19901.61,16706.94 "/>
    <polygon class="fil4" points="26027.35,21786.65 27398.94,21781.95 27400.01,19813.34 29377.28,19775.15 29375.47,19682.74 29376,18683.14 26036.23,18686.78 "/>
    <path class="fil7" d="M6180.58 19592.26c-4.17,2111.72 -19.25,2183.27 2722,2185.62l-0.1 -1094.68c-1722.94,90.27 -1397.69,-442.04 -1353.52,-1932.89l-1367.52 -11.55 -0.86 853.5z"/>
    <polygon class="fil4" points="26029.38,17759.48 29386.37,17789.32 29384.77,16692.82 26035.69,16696.78 "/>
    <polygon class="fil5" points="6180.26,17807.93 9519.18,17812.42 9514.15,16728.11 6210.31,16714.21 "/>
    <polyline class="fil8" points="-1508.94,16725.65 -4858.34,16723.41 -4859.2,17781.83 -1514.18,17787.93 "/>
    <path class="fil1" d="M32918.01 16611.32c1257.76,210.98 2216.28,1304.73 2216.28,2622.48 0,1317.75 -958.52,2411.5 -2216.28,2622.48l0 -1331.18c536.24,-184.11 921.6,-692.63 921.6,-1291.3 0,-598.67 -385.36,-1107.19 -921.6,-1291.29l0 -1331.19zm-886.47 5244.96c-1257.75,-210.98 -2216.28,-1304.73 -2216.28,-2622.48 0,-1317.75 958.53,-2411.5 2216.28,-2622.48l0 1331.19c-536.24,184.1 -921.59,692.62 -921.59,1291.29 0,598.67 385.35,1107.19 921.59,1291.19l0 1331.29z"/>
    <path class="fil9" d="M9940.37 17810.82c1462.18,22.67 2218.24,-230.27 2201.02,704.83 -532.74,331.56 -1417.69,218.4 -2205.3,225.68l2.03 1042.91c2255.25,-6.31 2162.09,-214.44 2220.81,1990.76l1270.73 2.56c1.71,-354.98 -17,-973.18 -15.08,-1515.55 2.14,-402.26 -303.86,-813.6 -622.15,-1032.01 353.48,-258.61 693.49,-450.38 793.39,-926.65 136.04,-648.9 -85.14,-1017.89 -454.77,-1221 -807.3,-443.76 -2084.88,-389.32 -3150.04,-362.04l-40.64 1090.51z"/>
    <polygon class="fil10" points="-1105.19,21774.35 2207.63,21777.03 2210.09,20682.02 265.33,20665.87 278.17,16722.02 -1056.42,16715.17 "/>
    <polygon class="fil5" points="-4859.2,17781.83 -1514.18,17787.93 -1508.94,16725.65 -4871.07,16723.41 "/>
    <path class="fil11" d="M16984.3 16624.05c1257.75,210.98 2216.28,1304.73 2216.28,2622.48 0,1317.75 -958.53,2411.5 -2216.28,2622.48l0 -1331.19c536.24,-184.1 921.6,-692.62 921.6,-1291.29 0,-598.67 -385.36,-1107.19 -921.6,-1291.3l0 -1331.18zm-886.47 5244.96c-1257.76,-210.98 -2216.28,-1304.73 -2216.28,-2622.48 0,-1317.75 958.52,-2411.5 2216.28,-2622.48l0 1331.18c-536.24,184.11 -921.6,692.63 -921.6,1291.3 0,598.67 385.36,1107.19 921.6,1291.19l0 1331.29z"/>
    <g>
     <polygon class="fil12" points="2443.05,21776.51 5792.02,21776.61 5793.63,20689.63 3820.52,20666.74 3820.95,19796.77 5788.6,19779.23 5796.41,18750.22 2445.72,18737.92 "/>
     <polyline class="fil8" points="5801.22,16725.67 2451.82,16723.42 2450.96,17781.85 5795.98,17787.94 "/>
     <polygon class="fil12" points="2443.05,21776.51 5792.02,21776.61 5793.63,20689.63 3820.52,20666.74 3820.95,19796.77 5788.6,19779.23 5796.41,18750.22 2445.72,18737.92 "/>
     <polygon class="fil5" points="2450.96,17781.85 5795.98,17787.94 5801.22,16725.67 2439.09,16723.42 "/>
    </g>
   </g>
  </g>
 </g>
</svg>
