<?xml version="1.0" encoding="UTF-8"?>
<!DOCTYPE svg PUBLIC "-//W3C//DTD SVG 1.1//EN" "http://www.w3.org/Graphics/SVG/1.1/DTD/svg11.dtd">
<!-- Creator: CorelDRAW 2019 (64 Bit) -->
<svg xmlns="http://www.w3.org/2000/svg" xml:space="preserve" width="297mm" height="210mm" version="1.1" style="shape-rendering:geometricPrecision; text-rendering:geometricPrecision; image-rendering:optimizeQuality; fill-rule:evenodd; clip-rule:evenodd"
viewBox="0 0 29700 21000"
 xmlns:xlink="http://www.w3.org/1999/xlink">
 <defs>
  <style type="text/css">
   <![CDATA[
    .fil0 {fill:#2F2929}
    .fil2 {fill:#FA1C22}
    .fil1 {fill:url(#id0)}
   ]]>
  </style>
  <linearGradient id="id0" gradientUnits="userSpaceOnUse" x1="8093.82" y1="13340.08" x2="8084.06" y2="30859.84">
   <stop offset="0" style="stop-opacity:1; stop-color:#FA1C22"/>
   <stop offset="1" style="stop-opacity:1; stop-color:#050505"/>
  </linearGradient>
 </defs>
 <g id="Camada_x0020_1">
  <metadata id="CorelCorpID_0Corel-Layer"/>
  <g id="_2326109190768">
   <polygon class="fil0" points="185.34,19144.74 4533.83,19139.7 4536.94,17791.74 2159.96,17768.66 2150.3,3778.13 4536.19,3772.44 4536.3,2431.57 203.49,2405.05 "/>
   <polygon class="fil1" points="8093.82,17191.57 16583.65,17191.84 16587.72,14436.28 11585.79,14378.26 11586.88,12172.83 16574.97,12128.37 16594.77,9519.76 8100.6,9488.58 "/>
   <polygon class="fil2" points="8113.89,7064.89 16593.68,7080.35 16606.97,4387.42 8159.44,4357.05 "/>
   <polygon class="fil0" points="18540.04,6398.51 18541.59,10023.19 18541.33,15007.2 18541.33,15913.51 18587.61,17076.96 21494.69,17098.1 21782.69,17082.05 21781.39,4359.52 18541.59,4390.56 "/>
   <polygon class="fil0" points="29808.49,2446.68 25460.01,2434.83 25451.66,3782.76 27828.53,3815.08 27783.83,17805.55 25397.93,17801.97 25392.61,19142.82 29725.29,19186.18 "/>
  </g>
 </g>
</svg>
